<svg xmlns="http://www.w3.org/2000/svg" xmlns:xlink="http://www.w3.org/1999/xlink" width="3000" zoomAndPan="magnify" viewBox="0 0 2250 2250.000011" height="3000" preserveAspectRatio="xMidYMid meet" version="1.0"><defs><clipPath id="a9fcddf311"><path d="M 360.761719 590 L 888.101562 590 L 888.101562 2123.257812 L 360.761719 2123.257812 Z M 360.761719 590 " clip-rule="nonzero"/></clipPath><clipPath id="003e280fb5"><path d="M 807.617188 2123.257812 L 441.246094 2123.257812 C 396.792969 2123.257812 360.761719 2087.230469 360.761719 2042.773438 L 360.761719 670.453125 C 360.761719 625.996094 396.792969 589.96875 441.246094 589.96875 L 807.617188 589.96875 C 852.058594 589.96875 888.101562 625.996094 888.101562 670.453125 L 888.101562 2042.773438 C 888.101562 2087.230469 852.058594 2123.257812 807.617188 2123.257812 Z M 807.617188 2123.257812 " clip-rule="nonzero"/></clipPath><clipPath id="cdac658bb6"><path d="M 807.617188 2123.257812 L 441.246094 2123.257812 C 396.792969 2123.257812 360.761719 2087.230469 360.761719 2042.773438 L 360.761719 670.453125 C 360.761719 625.996094 396.792969 589.96875 441.246094 589.96875 L 807.617188 589.96875 C 852.058594 589.96875 888.101562 625.996094 888.101562 670.453125 L 888.101562 2042.773438 C 888.101562 2087.230469 852.058594 2123.257812 807.617188 2123.257812 Z M 807.617188 2123.257812 " clip-rule="nonzero"/></clipPath><clipPath id="f78066a69a"><path d="M 802.664062 1092 L 1149.375 1092 L 1149.375 1621.148438 L 802.664062 1621.148438 Z M 802.664062 1092 " clip-rule="nonzero"/></clipPath><clipPath id="e4709df7fc"><path d="M 1068.886719 1621.148438 L 883.148438 1621.148438 C 838.691406 1621.148438 802.664062 1585.121094 802.664062 1540.664062 L 802.664062 1172.550781 C 802.664062 1128.109375 838.691406 1092.066406 883.148438 1092.066406 L 1068.886719 1092.066406 C 1113.332031 1092.066406 1149.375 1128.109375 1149.375 1172.550781 L 1149.375 1540.664062 C 1149.375 1585.121094 1113.332031 1621.148438 1068.886719 1621.148438 Z M 1068.886719 1621.148438 " clip-rule="nonzero"/></clipPath><clipPath id="16f138bc97"><path d="M 1068.890625 1621.148438 L 883.148438 1621.148438 C 838.691406 1621.148438 802.664062 1585.121094 802.664062 1540.664062 L 802.664062 1172.550781 C 802.664062 1128.109375 838.691406 1092.066406 883.148438 1092.066406 L 1068.890625 1092.066406 C 1113.332031 1092.066406 1149.375 1128.109375 1149.375 1172.550781 L 1149.375 1540.664062 C 1149.375 1585.121094 1113.332031 1621.148438 1068.890625 1621.148438 Z M 1068.890625 1621.148438 " clip-rule="nonzero"/></clipPath><clipPath id="062a443d1d"><path d="M 1196.28125 1395.367188 L 1488.21875 1395.367188 L 1488.21875 1846.429688 L 1196.28125 1846.429688 Z M 1196.28125 1395.367188 " clip-rule="nonzero"/></clipPath><clipPath id="f8d93d54ac"><path d="M 1435.402344 1846.429688 L 1249.113281 1846.429688 C 1235.101562 1846.429688 1221.667969 1840.859375 1211.757812 1830.953125 C 1201.851562 1821.054688 1196.28125 1807.609375 1196.28125 1793.613281 L 1196.28125 1448.683594 C 1196.28125 1434.671875 1201.851562 1421.238281 1211.757812 1411.332031 C 1221.667969 1401.421875 1235.101562 1395.867188 1249.113281 1395.867188 L 1435.402344 1395.867188 C 1449.414062 1395.867188 1462.847656 1401.421875 1472.742188 1411.332031 C 1482.648438 1421.238281 1488.21875 1434.671875 1488.21875 1448.683594 L 1488.21875 1793.613281 C 1488.21875 1807.609375 1482.648438 1821.054688 1472.742188 1830.953125 C 1462.847656 1840.859375 1449.414062 1846.429688 1435.402344 1846.429688 Z M 1435.402344 1846.429688 " clip-rule="nonzero"/></clipPath><clipPath id="8c24cad38d"><path d="M 1435.402344 1846.429688 L 1249.113281 1846.429688 C 1235.101562 1846.429688 1221.667969 1840.859375 1211.757812 1830.953125 C 1201.851562 1821.054688 1196.28125 1807.609375 1196.28125 1793.613281 L 1196.28125 1448.683594 C 1196.28125 1434.671875 1201.851562 1421.238281 1211.757812 1411.332031 C 1221.667969 1401.421875 1235.101562 1395.867188 1249.113281 1395.867188 L 1435.402344 1395.867188 C 1449.414062 1395.867188 1462.847656 1401.421875 1472.742188 1411.332031 C 1482.648438 1421.238281 1488.21875 1434.671875 1488.21875 1448.683594 L 1488.21875 1793.613281 C 1488.21875 1807.609375 1482.648438 1821.054688 1472.742188 1830.953125 C 1462.847656 1840.859375 1449.414062 1846.429688 1435.402344 1846.429688 Z M 1435.402344 1846.429688 " clip-rule="nonzero"/></clipPath><clipPath id="cce8353afa"><path d="M 1533.226562 1676.273438 L 1825.167969 1676.273438 L 1825.167969 2123.257812 L 1533.226562 2123.257812 Z M 1533.226562 1676.273438 " clip-rule="nonzero"/></clipPath><clipPath id="c17890e015"><path d="M 1772.335938 2123.257812 L 1586.042969 2123.257812 C 1572.035156 2123.257812 1558.601562 2117.6875 1548.691406 2107.78125 C 1538.796875 2097.882812 1533.226562 2084.449219 1533.226562 2070.441406 L 1533.226562 1729.246094 C 1533.226562 1715.238281 1538.796875 1701.804688 1548.691406 1691.90625 C 1558.601562 1682 1572.035156 1676.429688 1586.042969 1676.429688 L 1772.335938 1676.429688 C 1786.347656 1676.429688 1799.78125 1682 1809.6875 1691.90625 C 1819.597656 1701.804688 1825.167969 1715.238281 1825.167969 1729.246094 L 1825.167969 2070.441406 C 1825.167969 2084.449219 1819.597656 2097.882812 1809.6875 2107.78125 C 1799.78125 2117.6875 1786.347656 2123.257812 1772.335938 2123.257812 Z M 1772.335938 2123.257812 " clip-rule="nonzero"/></clipPath><clipPath id="a6688ca54d"><path d="M 1772.335938 2123.257812 L 1586.042969 2123.257812 C 1572.035156 2123.257812 1558.601562 2117.6875 1548.691406 2107.78125 C 1538.796875 2097.882812 1533.226562 2084.449219 1533.226562 2070.441406 L 1533.226562 1729.246094 C 1533.226562 1715.238281 1538.796875 1701.804688 1548.691406 1691.910156 C 1558.601562 1682 1572.035156 1676.429688 1586.042969 1676.429688 L 1772.335938 1676.429688 C 1786.347656 1676.429688 1799.78125 1682 1809.6875 1691.910156 C 1819.597656 1701.804688 1825.167969 1715.238281 1825.167969 1729.246094 L 1825.167969 2070.441406 C 1825.167969 2084.449219 1819.597656 2097.882812 1809.6875 2107.78125 C 1799.78125 2117.6875 1786.347656 2123.257812 1772.335938 2123.257812 Z M 1772.335938 2123.257812 " clip-rule="nonzero"/></clipPath><clipPath id="7bb0a644d4"><path d="M 829.9375 98.699219 L 1357.277344 98.699219 L 1357.277344 627.964844 L 829.9375 627.964844 Z M 829.9375 98.699219 " clip-rule="nonzero"/></clipPath><clipPath id="9bd2be540e"><path d="M 1276.792969 627.964844 L 910.421875 627.964844 C 865.980469 627.964844 829.9375 591.921875 829.9375 547.480469 L 829.9375 179.367188 C 829.9375 134.910156 865.980469 98.882812 910.421875 98.882812 L 1276.792969 98.882812 C 1321.234375 98.882812 1357.277344 134.910156 1357.277344 179.367188 L 1357.277344 547.480469 C 1357.277344 591.921875 1321.234375 627.964844 1276.792969 627.964844 Z M 1276.792969 627.964844 " clip-rule="nonzero"/></clipPath><clipPath id="641a7a6f52"><path d="M 1276.792969 627.964844 L 910.421875 627.964844 C 865.980469 627.964844 829.9375 591.921875 829.9375 547.480469 L 829.9375 179.367188 C 829.9375 134.910156 865.980469 98.882812 910.421875 98.882812 L 1276.792969 98.882812 C 1321.234375 98.882812 1357.277344 134.910156 1357.277344 179.367188 L 1357.277344 547.480469 C 1357.277344 591.921875 1321.234375 627.964844 1276.792969 627.964844 Z M 1276.792969 627.964844 " clip-rule="nonzero"/></clipPath><clipPath id="bbf61932bc"><path d="M 1297.789062 589.679688 L 1825.125 589.679688 L 1825.125 1119.039062 L 1297.789062 1119.039062 Z M 1297.789062 589.679688 " clip-rule="nonzero"/></clipPath><clipPath id="fcf5de55a3"><path d="M 1744.640625 1119.039062 L 1378.273438 1119.039062 C 1333.828125 1119.039062 1297.789062 1083.007812 1297.789062 1038.554688 L 1297.789062 670.453125 C 1297.789062 625.996094 1333.828125 589.957031 1378.273438 589.957031 L 1744.640625 589.957031 C 1789.097656 589.957031 1825.125 625.996094 1825.125 670.453125 L 1825.125 1038.554688 C 1825.125 1083.007812 1789.097656 1119.039062 1744.640625 1119.039062 Z M 1744.640625 1119.039062 " clip-rule="nonzero"/></clipPath><clipPath id="8e57231687"><path d="M 1744.640625 1119.039062 L 1378.273438 1119.039062 C 1333.828125 1119.039062 1297.789062 1083.007812 1297.789062 1038.554688 L 1297.789062 670.453125 C 1297.789062 625.996094 1333.828125 589.957031 1378.273438 589.957031 L 1744.640625 589.957031 C 1789.097656 589.957031 1825.125 625.996094 1825.125 670.453125 L 1825.125 1038.554688 C 1825.125 1083.007812 1789.097656 1119.039062 1744.640625 1119.039062 Z M 1744.640625 1119.039062 " clip-rule="nonzero"/></clipPath></defs><g clip-path="url(#a9fcddf311)"><g clip-path="url(#003e280fb5)"><g clip-path="url(#cdac658bb6)"><path fill="#000000" d="M 360.761719 590.675781 L 888.101562 590.675781 L 888.101562 2123.257812 L 360.761719 2123.257812 Z M 360.761719 590.675781 " fill-opacity="1" fill-rule="nonzero"/></g></g></g><g clip-path="url(#f78066a69a)"><g clip-path="url(#e4709df7fc)"><g clip-path="url(#16f138bc97)"><path fill="#000000" d="M 802.664062 1091.605469 L 1149.375 1091.605469 L 1149.375 1621.148438 L 802.664062 1621.148438 Z M 802.664062 1091.605469 " fill-opacity="1" fill-rule="nonzero"/></g></g></g><g clip-path="url(#062a443d1d)"><g clip-path="url(#f8d93d54ac)"><g clip-path="url(#8c24cad38d)"><path fill="#535353" d="M 1196.28125 1395.984375 L 1488.21875 1395.984375 L 1488.21875 1846.429688 L 1196.28125 1846.429688 Z M 1196.28125 1395.984375 " fill-opacity="1" fill-rule="nonzero"/></g></g></g><g clip-path="url(#cce8353afa)"><g clip-path="url(#c17890e015)"><g clip-path="url(#a6688ca54d)"><path fill="#535353" d="M 1533.226562 1676.234375 L 1825.167969 1676.234375 L 1825.167969 2123.257812 L 1533.226562 2123.257812 Z M 1533.226562 1676.234375 " fill-opacity="1" fill-rule="nonzero"/></g></g></g><g clip-path="url(#7bb0a644d4)"><g clip-path="url(#9bd2be540e)"><g clip-path="url(#641a7a6f52)"><path fill="#535353" d="M 829.9375 98.566406 L 1357.277344 98.566406 L 1357.277344 627.964844 L 829.9375 627.964844 Z M 829.9375 98.566406 " fill-opacity="1" fill-rule="nonzero"/></g></g></g><g clip-path="url(#bbf61932bc)"><g clip-path="url(#fcf5de55a3)"><g clip-path="url(#8e57231687)"><path fill="#535353" d="M 1297.789062 589.640625 L 1825.125 589.640625 L 1825.125 1119.039062 L 1297.789062 1119.039062 Z M 1297.789062 589.640625 " fill-opacity="1" fill-rule="nonzero"/></g></g></g></svg>