<svg xmlns="http://www.w3.org/2000/svg" xmlns:xlink="http://www.w3.org/1999/xlink" width="2500" zoomAndPan="magnify" viewBox="0 0 1874.88 749.999995" height="1000" preserveAspectRatio="xMidYMid meet" version="1.0"><defs><g/><clipPath id="3ee417af24"><path d="M 36.480469 233.464844 L 154.089844 233.464844 L 154.089844 575.488281 L 36.480469 575.488281 Z M 36.480469 233.464844 " clip-rule="nonzero"/></clipPath><clipPath id="332e817694"><path d="M 136.140625 575.488281 L 54.433594 575.488281 C 44.515625 575.488281 36.480469 567.453125 36.480469 557.539062 L 36.480469 251.476562 C 36.480469 241.5625 44.515625 233.527344 54.433594 233.527344 L 136.140625 233.527344 C 146.054688 233.527344 154.089844 241.5625 154.089844 251.476562 L 154.089844 557.539062 C 154.089844 567.453125 146.054688 575.488281 136.140625 575.488281 Z M 136.140625 575.488281 " clip-rule="nonzero"/></clipPath><clipPath id="aa880b78eb"><path d="M 136.140625 575.488281 L 54.433594 575.488281 C 44.515625 575.488281 36.480469 567.453125 36.480469 557.539062 L 36.480469 251.476562 C 36.480469 241.5625 44.515625 233.527344 54.433594 233.527344 L 136.140625 233.527344 C 146.054688 233.527344 154.089844 241.5625 154.089844 251.476562 L 154.089844 557.539062 C 154.089844 567.453125 146.054688 575.488281 136.140625 575.488281 Z M 136.140625 575.488281 " clip-rule="nonzero"/></clipPath><clipPath id="28341e092b"><path d="M 135.035156 345.476562 L 212.359375 345.476562 L 212.359375 463.507812 L 135.035156 463.507812 Z M 135.035156 345.476562 " clip-rule="nonzero"/></clipPath><clipPath id="5ba9688ba0"><path d="M 194.410156 463.507812 L 152.988281 463.507812 C 143.070312 463.507812 135.035156 455.46875 135.035156 445.554688 L 135.035156 363.457031 C 135.035156 353.546875 143.070312 345.507812 152.988281 345.507812 L 194.410156 345.507812 C 204.324219 345.507812 212.359375 353.546875 212.359375 363.457031 L 212.359375 445.554688 C 212.359375 455.46875 204.324219 463.507812 194.410156 463.507812 Z M 194.410156 463.507812 " clip-rule="nonzero"/></clipPath><clipPath id="2a186d0a61"><path d="M 194.410156 463.507812 L 152.988281 463.507812 C 143.070312 463.507812 135.035156 455.46875 135.035156 445.554688 L 135.035156 363.457031 C 135.035156 353.546875 143.070312 345.507812 152.988281 345.507812 L 194.410156 345.507812 C 204.324219 345.507812 212.359375 353.546875 212.359375 363.457031 L 212.359375 445.554688 C 212.359375 455.46875 204.324219 463.507812 194.410156 463.507812 Z M 194.410156 463.507812 " clip-rule="nonzero"/></clipPath><clipPath id="9ef7e78818"><path d="M 222.824219 413.152344 L 287.933594 413.152344 L 287.933594 513.75 L 222.824219 513.75 Z M 222.824219 413.152344 " clip-rule="nonzero"/></clipPath><clipPath id="9b2df93c77"><path d="M 276.152344 513.75 L 234.605469 513.75 C 231.480469 513.75 228.484375 512.507812 226.273438 510.296875 C 224.066406 508.089844 222.824219 505.089844 222.824219 501.96875 L 222.824219 425.042969 C 222.824219 421.917969 224.066406 418.921875 226.273438 416.710938 C 228.484375 414.503906 231.480469 413.261719 234.605469 413.261719 L 276.152344 413.261719 C 279.277344 413.261719 282.273438 414.503906 284.480469 416.710938 C 286.691406 418.921875 287.933594 421.917969 287.933594 425.042969 L 287.933594 501.96875 C 287.933594 505.089844 286.691406 508.089844 284.480469 510.296875 C 282.273438 512.507812 279.277344 513.75 276.152344 513.75 Z M 276.152344 513.75 " clip-rule="nonzero"/></clipPath><clipPath id="adf7ace4bc"><path d="M 276.152344 513.75 L 234.605469 513.75 C 231.480469 513.75 228.484375 512.507812 226.273438 510.296875 C 224.066406 508.089844 222.824219 505.089844 222.824219 501.96875 L 222.824219 425.042969 C 222.824219 421.917969 224.066406 418.921875 226.273438 416.710938 C 228.484375 414.503906 231.480469 413.261719 234.605469 413.261719 L 276.152344 413.261719 C 279.277344 413.261719 282.273438 414.503906 284.480469 416.710938 C 286.691406 418.921875 287.933594 421.917969 287.933594 425.042969 L 287.933594 501.96875 C 287.933594 505.089844 286.691406 508.089844 284.480469 510.296875 C 282.273438 512.507812 279.277344 513.75 276.152344 513.75 Z M 276.152344 513.75 " clip-rule="nonzero"/></clipPath><clipPath id="2d94e1d7a5"><path d="M 297.96875 475.800781 L 363.078125 475.800781 L 363.078125 575.488281 L 297.96875 575.488281 Z M 297.96875 475.800781 " clip-rule="nonzero"/></clipPath><clipPath id="18750d5770"><path d="M 351.296875 575.488281 L 309.75 575.488281 C 306.625 575.488281 303.628906 574.246094 301.417969 572.035156 C 299.210938 569.828125 297.96875 566.832031 297.96875 563.707031 L 297.96875 487.613281 C 297.96875 484.488281 299.210938 481.492188 301.417969 479.289062 C 303.628906 477.078125 306.625 475.835938 309.75 475.835938 L 351.296875 475.835938 C 354.421875 475.835938 357.417969 477.078125 359.628906 479.289062 C 361.835938 481.492188 363.078125 484.488281 363.078125 487.613281 L 363.078125 563.707031 C 363.078125 566.832031 361.835938 569.828125 359.628906 572.035156 C 357.417969 574.246094 354.421875 575.488281 351.296875 575.488281 Z M 351.296875 575.488281 " clip-rule="nonzero"/></clipPath><clipPath id="3e027e73ac"><path d="M 351.296875 575.488281 L 309.75 575.488281 C 306.625 575.488281 303.628906 574.246094 301.417969 572.035156 C 299.210938 569.828125 297.96875 566.832031 297.96875 563.710938 L 297.96875 487.613281 C 297.96875 484.488281 299.210938 481.492188 301.417969 479.289062 C 303.628906 477.078125 306.625 475.835938 309.75 475.835938 L 351.296875 475.835938 C 354.421875 475.835938 357.417969 477.078125 359.628906 479.289062 C 361.835938 481.492188 363.078125 484.488281 363.078125 487.613281 L 363.078125 563.710938 C 363.078125 566.832031 361.835938 569.828125 359.628906 572.035156 C 357.417969 574.246094 354.421875 575.488281 351.296875 575.488281 Z M 351.296875 575.488281 " clip-rule="nonzero"/></clipPath><clipPath id="918adff5d8"><path d="M 141.121094 124 L 258.730469 124 L 258.730469 242 L 141.121094 242 Z M 141.121094 124 " clip-rule="nonzero"/></clipPath><clipPath id="db48aff7ba"><path d="M 240.777344 242 L 159.070312 242 C 149.15625 242 141.121094 233.964844 141.121094 224.050781 L 141.121094 141.953125 C 141.121094 132.039062 149.15625 124.003906 159.070312 124.003906 L 240.777344 124.003906 C 250.691406 124.003906 258.730469 132.039062 258.730469 141.953125 L 258.730469 224.050781 C 258.730469 233.964844 250.691406 242 240.777344 242 Z M 240.777344 242 " clip-rule="nonzero"/></clipPath><clipPath id="1a321b8f56"><path d="M 240.777344 242 L 159.070312 242 C 149.15625 242 141.121094 233.964844 141.121094 224.050781 L 141.121094 141.953125 C 141.121094 132.039062 149.15625 124.003906 159.070312 124.003906 L 240.777344 124.003906 C 250.691406 124.003906 258.730469 132.039062 258.730469 141.953125 L 258.730469 224.050781 C 258.730469 233.964844 250.691406 242 240.777344 242 Z M 240.777344 242 " clip-rule="nonzero"/></clipPath><clipPath id="a6d2ce4aab"><path d="M 245.460938 233.464844 L 363.070312 233.464844 L 363.070312 351.523438 L 245.460938 351.523438 Z M 245.460938 233.464844 " clip-rule="nonzero"/></clipPath><clipPath id="3534bdeeb1"><path d="M 345.121094 351.523438 L 263.410156 351.523438 C 253.5 351.523438 245.460938 343.488281 245.460938 333.574219 L 245.460938 251.476562 C 245.460938 241.5625 253.5 233.523438 263.410156 233.523438 L 345.121094 233.523438 C 355.035156 233.523438 363.070312 241.5625 363.070312 251.476562 L 363.070312 333.574219 C 363.070312 343.488281 355.035156 351.523438 345.121094 351.523438 Z M 345.121094 351.523438 " clip-rule="nonzero"/></clipPath><clipPath id="188a2677a7"><path d="M 345.121094 351.523438 L 263.410156 351.523438 C 253.5 351.523438 245.460938 343.488281 245.460938 333.574219 L 245.460938 251.476562 C 245.460938 241.5625 253.5 233.523438 263.410156 233.523438 L 345.121094 233.523438 C 355.035156 233.523438 363.070312 241.5625 363.070312 251.476562 L 363.070312 333.574219 C 363.070312 343.488281 355.035156 351.523438 345.121094 351.523438 Z M 345.121094 351.523438 " clip-rule="nonzero"/></clipPath><clipPath id="24ad5be6bb"><rect x="0" width="1112" y="0" height="446"/></clipPath></defs><g clip-path="url(#3ee417af24)"><g clip-path="url(#332e817694)"><g clip-path="url(#aa880b78eb)"><path fill="#000000" d="M 36.480469 233.6875 L 154.089844 233.6875 L 154.089844 575.488281 L 36.480469 575.488281 Z M 36.480469 233.6875 " fill-opacity="1" fill-rule="nonzero"/></g></g></g><g clip-path="url(#28341e092b)"><g clip-path="url(#5ba9688ba0)"><g clip-path="url(#2a186d0a61)"><path fill="#000000" d="M 135.035156 345.40625 L 212.359375 345.40625 L 212.359375 463.507812 L 135.035156 463.507812 Z M 135.035156 345.40625 " fill-opacity="1" fill-rule="nonzero"/></g></g></g><g clip-path="url(#9ef7e78818)"><g clip-path="url(#9b2df93c77)"><g clip-path="url(#adf7ace4bc)"><path fill="#535353" d="M 222.824219 413.289062 L 287.933594 413.289062 L 287.933594 513.75 L 222.824219 513.75 Z M 222.824219 413.289062 " fill-opacity="1" fill-rule="nonzero"/></g></g></g><g clip-path="url(#2d94e1d7a5)"><g clip-path="url(#18750d5770)"><g clip-path="url(#3e027e73ac)"><path fill="#535353" d="M 297.96875 475.792969 L 363.078125 475.792969 L 363.078125 575.488281 L 297.96875 575.488281 Z M 297.96875 475.792969 " fill-opacity="1" fill-rule="nonzero"/></g></g></g><g clip-path="url(#918adff5d8)"><g clip-path="url(#db48aff7ba)"><g clip-path="url(#1a321b8f56)"><path fill="#535353" d="M 141.121094 123.933594 L 258.730469 123.933594 L 258.730469 242 L 141.121094 242 Z M 141.121094 123.933594 " fill-opacity="1" fill-rule="nonzero"/></g></g></g><g clip-path="url(#a6d2ce4aab)"><g clip-path="url(#3534bdeeb1)"><g clip-path="url(#188a2677a7)"><path fill="#535353" d="M 245.460938 233.453125 L 363.070312 233.453125 L 363.070312 351.523438 L 245.460938 351.523438 Z M 245.460938 233.453125 " fill-opacity="1" fill-rule="nonzero"/></g></g></g><g transform="matrix(1, 0, 0, 1, 537, 238)"><g clip-path="url(#24ad5be6bb)"><g fill="#000000" fill-opacity="1"><g transform="translate(0.739836, 327.7453)"><g><path d="M 25.765625 0 L 25.765625 -214.6875 L 117.46875 -214.6875 C 133.820312 -214.6875 148.03125 -211.722656 160.09375 -205.796875 C 172.15625 -199.867188 181.457031 -191.382812 188 -180.34375 C 194.550781 -169.300781 197.828125 -156.113281 197.828125 -140.78125 C 197.828125 -125.03125 194.25 -111.476562 187.09375 -100.125 C 179.9375 -88.78125 169.914062 -80.25 157.03125 -74.53125 L 201.5 0 L 145.078125 0 L 106.734375 -66.859375 L 74.53125 -66.859375 L 74.53125 0 Z M 73.921875 -107.953125 L 111.03125 -107.953125 C 123.09375 -107.953125 132.34375 -110.765625 138.78125 -116.390625 C 145.21875 -122.015625 148.4375 -130.039062 148.4375 -140.46875 C 148.4375 -150.894531 145.21875 -158.921875 138.78125 -164.546875 C 132.34375 -170.171875 123.09375 -172.984375 111.03125 -172.984375 L 73.921875 -172.984375 Z M 73.921875 -107.953125 "/></g></g></g><g fill="#000000" fill-opacity="1"><g transform="translate(220.032632, 327.7453)"><g><path d="M 76.984375 3.0625 C 57.960938 3.0625 42.929688 -1.378906 31.890625 -10.265625 C 20.847656 -19.160156 15.328125 -31.378906 15.328125 -46.921875 C 15.328125 -61.847656 20.285156 -73.757812 30.203125 -82.65625 C 40.117188 -91.550781 53.460938 -96 70.234375 -96 L 128.515625 -96 L 128.515625 -103.359375 C 128.515625 -111.335938 125.648438 -117.726562 119.921875 -122.53125 C 114.191406 -127.332031 106.726562 -129.734375 97.53125 -129.734375 C 89.96875 -129.734375 83.523438 -127.992188 78.203125 -124.515625 C 72.890625 -121.046875 69.519531 -116.445312 68.09375 -110.71875 L 23.3125 -110.71875 C 26.175781 -128.300781 34.097656 -141.796875 47.078125 -151.203125 C 60.054688 -160.609375 76.769531 -165.3125 97.21875 -165.3125 C 121.351562 -165.3125 140.21875 -159.226562 153.8125 -147.0625 C 167.40625 -134.894531 174.203125 -118.179688 174.203125 -96.921875 L 174.203125 0 L 139.546875 0 L 134.34375 -18.703125 C 120.226562 -4.191406 101.109375 3.0625 76.984375 3.0625 Z M 61.34375 -48.765625 C 61.34375 -43.242188 63.742188 -38.796875 68.546875 -35.421875 C 73.347656 -32.046875 79.738281 -30.359375 87.71875 -30.359375 C 99.375 -30.359375 109.035156 -33.734375 116.703125 -40.484375 C 124.367188 -47.234375 128.40625 -56.023438 128.8125 -66.859375 L 84.65625 -66.859375 C 77.695312 -66.859375 72.070312 -65.222656 67.78125 -61.953125 C 63.488281 -58.679688 61.34375 -54.285156 61.34375 -48.765625 Z M 61.34375 -48.765625 "/></g></g></g><g fill="#000000" fill-opacity="1"><g transform="translate(417.856208, 327.7453)"><g><path d="M 62.265625 0 L 2.765625 -161.015625 L 52.140625 -161.015625 L 70.84375 -107.65625 L 86.796875 -62.5625 L 103.359375 -107.65625 L 123.296875 -161.015625 L 161.015625 -161.015625 L 180.953125 -107.65625 L 197.515625 -62.265625 L 213.46875 -107.65625 L 232.484375 -161.015625 L 281.546875 -161.015625 L 222.046875 0 L 178.8125 0 L 142.3125 -98.140625 L 105.5 0 Z M 62.265625 0 "/></g></g></g><g fill="#000000" fill-opacity="1"><g transform="translate(705.543761, 327.7453)"><g><path d="M 76.984375 3.0625 C 57.960938 3.0625 42.929688 -1.378906 31.890625 -10.265625 C 20.847656 -19.160156 15.328125 -31.378906 15.328125 -46.921875 C 15.328125 -61.847656 20.285156 -73.757812 30.203125 -82.65625 C 40.117188 -91.550781 53.460938 -96 70.234375 -96 L 128.515625 -96 L 128.515625 -103.359375 C 128.515625 -111.335938 125.648438 -117.726562 119.921875 -122.53125 C 114.191406 -127.332031 106.726562 -129.734375 97.53125 -129.734375 C 89.96875 -129.734375 83.523438 -127.992188 78.203125 -124.515625 C 72.890625 -121.046875 69.519531 -116.445312 68.09375 -110.71875 L 23.3125 -110.71875 C 26.175781 -128.300781 34.097656 -141.796875 47.078125 -151.203125 C 60.054688 -160.609375 76.769531 -165.3125 97.21875 -165.3125 C 121.351562 -165.3125 140.21875 -159.226562 153.8125 -147.0625 C 167.40625 -134.894531 174.203125 -118.179688 174.203125 -96.921875 L 174.203125 0 L 139.546875 0 L 134.34375 -18.703125 C 120.226562 -4.191406 101.109375 3.0625 76.984375 3.0625 Z M 61.34375 -48.765625 C 61.34375 -43.242188 63.742188 -38.796875 68.546875 -35.421875 C 73.347656 -32.046875 79.738281 -30.359375 87.71875 -30.359375 C 99.375 -30.359375 109.035156 -33.734375 116.703125 -40.484375 C 124.367188 -47.234375 128.40625 -56.023438 128.8125 -66.859375 L 84.65625 -66.859375 C 77.695312 -66.859375 72.070312 -65.222656 67.78125 -61.953125 C 63.488281 -58.679688 61.34375 -54.285156 61.34375 -48.765625 Z M 61.34375 -48.765625 "/></g></g></g><g fill="#000000" fill-opacity="1"><g transform="translate(903.367374, 327.7453)"><g><path d="M 23.3125 0 L 23.3125 -161.015625 L 57.96875 -161.015625 L 62.875 -142.921875 C 69.414062 -150.484375 77.335938 -156.101562 86.640625 -159.78125 C 95.941406 -163.46875 105.910156 -165.3125 116.546875 -165.3125 C 137.609375 -165.3125 154.117188 -158.769531 166.078125 -145.6875 C 178.035156 -132.601562 184.015625 -114.914062 184.015625 -92.625 L 184.015625 0 L 137.40625 0 L 137.40625 -87.71875 C 137.40625 -99.570312 134.59375 -108.820312 128.96875 -115.46875 C 123.34375 -122.113281 115.519531 -125.4375 105.5 -125.4375 C 94.875 -125.4375 86.285156 -121.753906 79.734375 -114.390625 C 73.191406 -107.035156 69.921875 -97.019531 69.921875 -84.34375 L 69.921875 0 Z M 23.3125 0 "/></g></g></g></g></g></svg>